<mxfile host="app.diagrams.net" modified="2024-04-11T11:40:50.631Z" agent="Mozilla/5.0 (Windows NT 10.0; Win64; x64) AppleWebKit/537.36 (KHTML, like Gecko) Chrome/123.0.0.0 Safari/537.36 Edg/123.0.0.0" etag="kzdVksXjedt_jlypFG08" version="24.2.3" type="device">
  <diagram name="Page-1" id="cyFYCHiYQl3XY2V668G5">
    <mxGraphModel dx="1002" dy="577" grid="1" gridSize="10" guides="1" tooltips="1" connect="1" arrows="1" fold="1" page="1" pageScale="1" pageWidth="827" pageHeight="1169" math="0" shadow="0">
      <root>
        <mxCell id="0" />
        <mxCell id="1" parent="0" />
        <mxCell id="0lmGDrrqWt7BdLKRsjal-2" style="edgeStyle=orthogonalEdgeStyle;rounded=0;orthogonalLoop=1;jettySize=auto;html=1;" parent="1" source="0lmGDrrqWt7BdLKRsjal-1" edge="1">
          <mxGeometry relative="1" as="geometry">
            <mxPoint x="400" y="170" as="targetPoint" />
          </mxGeometry>
        </mxCell>
        <mxCell id="0lmGDrrqWt7BdLKRsjal-1" value="Welcome" style="ellipse;whiteSpace=wrap;html=1;" parent="1" vertex="1">
          <mxGeometry x="340" y="40" width="120" height="80" as="geometry" />
        </mxCell>
        <mxCell id="0lmGDrrqWt7BdLKRsjal-4" style="edgeStyle=orthogonalEdgeStyle;rounded=0;orthogonalLoop=1;jettySize=auto;html=1;" parent="1" source="0lmGDrrqWt7BdLKRsjal-3" edge="1">
          <mxGeometry relative="1" as="geometry">
            <mxPoint x="400" y="260" as="targetPoint" />
          </mxGeometry>
        </mxCell>
        <mxCell id="0lmGDrrqWt7BdLKRsjal-3" value="Enter the number of songs you want to buy" style="shape=parallelogram;perimeter=parallelogramPerimeter;whiteSpace=wrap;html=1;fixedSize=1;" parent="1" vertex="1">
          <mxGeometry x="335" y="160" width="130" height="50" as="geometry" />
        </mxCell>
        <mxCell id="0lmGDrrqWt7BdLKRsjal-13" style="edgeStyle=orthogonalEdgeStyle;rounded=0;orthogonalLoop=1;jettySize=auto;html=1;" parent="1" source="0lmGDrrqWt7BdLKRsjal-5" target="0lmGDrrqWt7BdLKRsjal-3" edge="1">
          <mxGeometry relative="1" as="geometry" />
        </mxCell>
        <mxCell id="0lmGDrrqWt7BdLKRsjal-5" value="Song Price:1 dollar/each" style="shape=internalStorage;whiteSpace=wrap;html=1;backgroundOutline=1;" parent="1" vertex="1">
          <mxGeometry x="530" y="160" width="80" height="80" as="geometry" />
        </mxCell>
        <mxCell id="0lmGDrrqWt7BdLKRsjal-9" style="edgeStyle=orthogonalEdgeStyle;rounded=0;orthogonalLoop=1;jettySize=auto;html=1;exitX=0.5;exitY=1;exitDx=0;exitDy=0;" parent="1" source="0lmGDrrqWt7BdLKRsjal-7" target="0lmGDrrqWt7BdLKRsjal-10" edge="1">
          <mxGeometry relative="1" as="geometry">
            <mxPoint x="400.1428571428571" y="350" as="targetPoint" />
          </mxGeometry>
        </mxCell>
        <mxCell id="0lmGDrrqWt7BdLKRsjal-7" value="Calculate the total price:" style="rounded=0;whiteSpace=wrap;html=1;" parent="1" vertex="1">
          <mxGeometry x="340" y="260" width="120" height="60" as="geometry" />
        </mxCell>
        <mxCell id="0lmGDrrqWt7BdLKRsjal-11" style="edgeStyle=orthogonalEdgeStyle;rounded=0;orthogonalLoop=1;jettySize=auto;html=1;" parent="1" source="0lmGDrrqWt7BdLKRsjal-10" target="0lmGDrrqWt7BdLKRsjal-12" edge="1">
          <mxGeometry relative="1" as="geometry">
            <mxPoint x="400.0028571428571" y="500" as="targetPoint" />
          </mxGeometry>
        </mxCell>
        <mxCell id="0lmGDrrqWt7BdLKRsjal-10" value="Write the fee." style="shape=document;whiteSpace=wrap;html=1;boundedLbl=1;" parent="1" vertex="1">
          <mxGeometry x="340.0028571428571" y="360" width="120" height="80" as="geometry" />
        </mxCell>
        <mxCell id="0lmGDrrqWt7BdLKRsjal-12" value="Exit" style="ellipse;whiteSpace=wrap;html=1;" parent="1" vertex="1">
          <mxGeometry x="340.0028571428571" y="460" width="120" height="80" as="geometry" />
        </mxCell>
        <mxCell id="rfUB9MjSji1WoyKG-0K9-8" style="edgeStyle=orthogonalEdgeStyle;rounded=0;orthogonalLoop=1;jettySize=auto;html=1;exitX=1;exitY=0.5;exitDx=0;exitDy=0;" edge="1" parent="1" source="rfUB9MjSji1WoyKG-0K9-6" target="rfUB9MjSji1WoyKG-0K9-9">
          <mxGeometry relative="1" as="geometry">
            <mxPoint x="520" y="810" as="targetPoint" />
            <Array as="points">
              <mxPoint x="400" y="670" />
            </Array>
          </mxGeometry>
        </mxCell>
        <mxCell id="rfUB9MjSji1WoyKG-0K9-6" value="Write the radius of the circle as centimeter:" style="ellipse;whiteSpace=wrap;html=1;" vertex="1" parent="1">
          <mxGeometry x="340" y="630" width="120" height="80" as="geometry" />
        </mxCell>
        <mxCell id="rfUB9MjSji1WoyKG-0K9-14" style="edgeStyle=orthogonalEdgeStyle;rounded=0;orthogonalLoop=1;jettySize=auto;html=1;exitX=0.5;exitY=1;exitDx=0;exitDy=0;" edge="1" parent="1" source="rfUB9MjSji1WoyKG-0K9-9">
          <mxGeometry relative="1" as="geometry">
            <mxPoint x="400.1428571428571" y="860" as="targetPoint" />
          </mxGeometry>
        </mxCell>
        <mxCell id="rfUB9MjSji1WoyKG-0K9-32" style="edgeStyle=orthogonalEdgeStyle;rounded=0;orthogonalLoop=1;jettySize=auto;html=1;exitX=1;exitY=0.5;exitDx=0;exitDy=0;entryX=0;entryY=0.5;entryDx=0;entryDy=0;" edge="1" parent="1" source="rfUB9MjSji1WoyKG-0K9-9" target="rfUB9MjSji1WoyKG-0K9-31">
          <mxGeometry relative="1" as="geometry" />
        </mxCell>
        <mxCell id="rfUB9MjSji1WoyKG-0K9-9" value="Write the radius:" style="shape=parallelogram;perimeter=parallelogramPerimeter;whiteSpace=wrap;html=1;fixedSize=1;" vertex="1" parent="1">
          <mxGeometry x="340" y="760" width="120" height="60" as="geometry" />
        </mxCell>
        <mxCell id="rfUB9MjSji1WoyKG-0K9-20" style="edgeStyle=orthogonalEdgeStyle;rounded=0;orthogonalLoop=1;jettySize=auto;html=1;exitX=0.5;exitY=1;exitDx=0;exitDy=0;" edge="1" parent="1" source="rfUB9MjSji1WoyKG-0K9-17">
          <mxGeometry relative="1" as="geometry">
            <mxPoint x="400" y="960" as="targetPoint" />
          </mxGeometry>
        </mxCell>
        <mxCell id="rfUB9MjSji1WoyKG-0K9-34" style="edgeStyle=orthogonalEdgeStyle;rounded=0;orthogonalLoop=1;jettySize=auto;html=1;exitX=1;exitY=0.5;exitDx=0;exitDy=0;entryX=0;entryY=0.5;entryDx=0;entryDy=0;" edge="1" parent="1" source="rfUB9MjSji1WoyKG-0K9-17" target="rfUB9MjSji1WoyKG-0K9-19">
          <mxGeometry relative="1" as="geometry" />
        </mxCell>
        <mxCell id="rfUB9MjSji1WoyKG-0K9-17" value="Enter the&amp;nbsp;&lt;span style=&quot;font-size:24.0pt;font-family:Calibri;&lt;br/&gt;mso-ascii-font-family:Calibri;mso-fareast-font-family:+mn-ea;mso-bidi-font-family:&lt;br/&gt;+mn-cs;mso-ascii-theme-font:minor-latin;mso-fareast-theme-font:minor-fareast;&lt;br/&gt;mso-bidi-theme-font:minor-bidi;color:#596A85;mso-color-index:7;mso-font-kerning:&lt;br/&gt;12.0pt;language:en-US;mso-style-textfill-type:solid;mso-style-textfill-fill-themecolor:&lt;br/&gt;accent4;mso-style-textfill-fill-color:#596A85;mso-style-textfill-fill-alpha:&lt;br/&gt;100.0%;mso-style-textfill-fill-colortransforms:lumm=75000&quot;&gt;∏&lt;/span&gt;" style="shape=parallelogram;perimeter=parallelogramPerimeter;whiteSpace=wrap;html=1;fixedSize=1;" vertex="1" parent="1">
          <mxGeometry x="340" y="860" width="120" height="60" as="geometry" />
        </mxCell>
        <mxCell id="rfUB9MjSji1WoyKG-0K9-19" value="&lt;span style=&quot;font-size:24.0pt;font-family:Calibri;&lt;br/&gt;mso-ascii-font-family:Calibri;mso-fareast-font-family:+mn-ea;mso-bidi-font-family:&lt;br/&gt;+mn-cs;mso-ascii-theme-font:minor-latin;mso-fareast-theme-font:minor-fareast;&lt;br/&gt;mso-bidi-theme-font:minor-bidi;color:#596A85;mso-color-index:7;mso-font-kerning:&lt;br/&gt;12.0pt;language:en-US;mso-style-textfill-type:solid;mso-style-textfill-fill-themecolor:&lt;br/&gt;accent4;mso-style-textfill-fill-color:#596A85;mso-style-textfill-fill-alpha:&lt;br/&gt;100.0%;mso-style-textfill-fill-colortransforms:lumm=75000&quot;&gt;∏= 3.14&lt;/span&gt;" style="rounded=0;whiteSpace=wrap;html=1;" vertex="1" parent="1">
          <mxGeometry x="520" y="860" width="120" height="60" as="geometry" />
        </mxCell>
        <mxCell id="rfUB9MjSji1WoyKG-0K9-33" style="edgeStyle=orthogonalEdgeStyle;rounded=0;orthogonalLoop=1;jettySize=auto;html=1;exitX=1;exitY=0.5;exitDx=0;exitDy=0;entryX=0;entryY=0.5;entryDx=0;entryDy=0;" edge="1" parent="1" source="rfUB9MjSji1WoyKG-0K9-23" target="rfUB9MjSji1WoyKG-0K9-25">
          <mxGeometry relative="1" as="geometry" />
        </mxCell>
        <mxCell id="rfUB9MjSji1WoyKG-0K9-23" value="Enter the height:" style="shape=parallelogram;perimeter=parallelogramPerimeter;whiteSpace=wrap;html=1;fixedSize=1;" vertex="1" parent="1">
          <mxGeometry x="335" y="960" width="120" height="60" as="geometry" />
        </mxCell>
        <mxCell id="rfUB9MjSji1WoyKG-0K9-25" value="height= h" style="rounded=0;whiteSpace=wrap;html=1;" vertex="1" parent="1">
          <mxGeometry x="520" y="960" width="120" height="60" as="geometry" />
        </mxCell>
        <mxCell id="rfUB9MjSji1WoyKG-0K9-40" style="edgeStyle=orthogonalEdgeStyle;rounded=0;orthogonalLoop=1;jettySize=auto;html=1;exitX=1;exitY=0.5;exitDx=0;exitDy=0;entryX=0.437;entryY=0.013;entryDx=0;entryDy=0;entryPerimeter=0;" edge="1" parent="1" source="rfUB9MjSji1WoyKG-0K9-31" target="rfUB9MjSji1WoyKG-0K9-39">
          <mxGeometry relative="1" as="geometry">
            <mxPoint x="920" y="790" as="targetPoint" />
          </mxGeometry>
        </mxCell>
        <mxCell id="rfUB9MjSji1WoyKG-0K9-31" value="radius= r" style="rounded=0;whiteSpace=wrap;html=1;" vertex="1" parent="1">
          <mxGeometry x="520" y="760" width="120" height="60" as="geometry" />
        </mxCell>
        <mxCell id="rfUB9MjSji1WoyKG-0K9-43" style="edgeStyle=orthogonalEdgeStyle;rounded=0;orthogonalLoop=1;jettySize=auto;html=1;" edge="1" parent="1" source="rfUB9MjSji1WoyKG-0K9-39" target="rfUB9MjSji1WoyKG-0K9-44">
          <mxGeometry relative="1" as="geometry">
            <mxPoint x="1040" y="880" as="targetPoint" />
          </mxGeometry>
        </mxCell>
        <mxCell id="rfUB9MjSji1WoyKG-0K9-39" value="Calculate the r.3,14.h" style="rounded=0;whiteSpace=wrap;html=1;" vertex="1" parent="1">
          <mxGeometry x="860" y="850" width="120" height="60" as="geometry" />
        </mxCell>
        <mxCell id="rfUB9MjSji1WoyKG-0K9-41" style="edgeStyle=orthogonalEdgeStyle;rounded=0;orthogonalLoop=1;jettySize=auto;html=1;exitX=1;exitY=0.5;exitDx=0;exitDy=0;entryX=-0.003;entryY=0.627;entryDx=0;entryDy=0;entryPerimeter=0;" edge="1" parent="1" source="rfUB9MjSji1WoyKG-0K9-19" target="rfUB9MjSji1WoyKG-0K9-39">
          <mxGeometry relative="1" as="geometry" />
        </mxCell>
        <mxCell id="rfUB9MjSji1WoyKG-0K9-42" style="edgeStyle=orthogonalEdgeStyle;rounded=0;orthogonalLoop=1;jettySize=auto;html=1;exitX=1;exitY=0.5;exitDx=0;exitDy=0;entryX=0.45;entryY=1.053;entryDx=0;entryDy=0;entryPerimeter=0;" edge="1" parent="1" source="rfUB9MjSji1WoyKG-0K9-25" target="rfUB9MjSji1WoyKG-0K9-39">
          <mxGeometry relative="1" as="geometry" />
        </mxCell>
        <mxCell id="rfUB9MjSji1WoyKG-0K9-44" value="Output the volume." style="shape=document;whiteSpace=wrap;html=1;boundedLbl=1;" vertex="1" parent="1">
          <mxGeometry x="1030" y="840" width="120" height="80" as="geometry" />
        </mxCell>
      </root>
    </mxGraphModel>
  </diagram>
</mxfile>
